<svg width="38" height="45" viewBox="0 0 38 45" fill="none" xmlns="http://www.w3.org/2000/svg">
<rect x="1.78815" y="7.15289" width="35.7645" height="35.7645" rx="5.96074" fill="#FCEC41"/>
<rect y="8.94112" width="35.7645" height="35.7645" rx="5.96074" fill="#FBE303"/>
<path fill-rule="evenodd" clip-rule="evenodd" d="M14.9094 14.9897C14.8093 15.0383 14.6938 15.1534 14.6459 15.2524C14.5657 15.418 14.5741 15.5676 14.7863 17.7462C14.9104 19.0209 15.011 20.1182 15.0098 20.1845C14.9982 20.8533 13.9908 20.9745 13.789 20.3314C13.7609 20.2419 13.6866 19.6145 13.6238 18.937C13.561 18.2595 13.4996 17.674 13.4873 17.6359C13.4587 17.5478 12.8509 17.8697 12.1074 18.3666C10.6321 19.3526 9.45079 20.71 8.66859 22.3179C8.37462 22.9222 8.03189 23.907 7.89784 24.5325L7.80518 24.9649H7.43463C6.90053 24.9649 6.67047 25.0486 6.35803 25.3562C5.98193 25.7267 5.878 26.1185 6.02541 26.6099C6.11179 26.8979 6.55265 27.3321 6.84497 27.4172C7.01383 27.4663 9.546 27.4809 17.8915 27.4809C30.1064 27.4809 29.0279 27.52 29.4458 27.0622C29.923 26.5394 29.923 25.9064 29.4458 25.3836C29.1653 25.0763 28.8706 24.9649 28.3385 24.9649H27.9579L27.8652 24.5325C27.4302 22.5024 26.2458 20.5043 24.6668 19.1369C23.8546 18.4335 22.3284 17.4748 22.276 17.635C22.2634 17.6736 22.2003 18.2713 22.1358 18.9632C22.0713 19.6551 21.9873 20.2973 21.9489 20.3904C21.868 20.587 21.5922 20.7711 21.378 20.7714C21.0561 20.7718 20.7586 20.4923 20.7532 20.1845C20.7521 20.1182 20.8528 19.0193 20.9771 17.7426C21.1997 15.4566 21.2017 15.4185 21.1054 15.2424C20.9157 14.8955 20.9655 14.9007 17.8735 14.9021C15.3938 14.9031 15.068 14.9128 14.9094 14.9897ZM8.96752 29.2066C8.30841 29.3652 7.79012 29.9256 7.68917 30.5889L7.6516 30.8356H6.93677C6.24877 30.8356 6.21705 30.8404 6.09135 30.9643C5.96177 31.0918 5.9607 31.101 5.9607 32.0936C5.9607 33.0861 5.96177 33.0953 6.09135 33.2229C6.21716 33.3469 6.2484 33.3516 6.94284 33.3516H7.66368V34.2655C7.66368 34.774 7.68842 35.2448 7.71945 35.3269C7.79374 35.5234 9.66553 37.3782 9.88383 37.4716C10.1362 37.5797 15.4056 37.5797 15.668 37.4717C15.854 37.3952 15.8712 37.3759 16.5239 36.5111C16.9853 35.8999 17.7628 35.0808 17.8815 35.0808C18.0003 35.0808 18.7778 35.8999 19.2391 36.5111C19.8919 37.3759 19.909 37.3952 20.095 37.4717C20.3575 37.5797 25.6269 37.5797 25.8793 37.4716C26.0976 37.3782 27.9693 35.5234 28.0436 35.3269C28.0747 35.2448 28.0994 34.774 28.0994 34.2655V33.3516H28.8202C29.5147 33.3516 29.5459 33.3469 29.6717 33.2229C29.8013 33.0953 29.8024 33.0861 29.8024 32.0936C29.8024 31.101 29.8013 31.0918 29.6717 30.9643C29.546 30.8404 29.5143 30.8356 28.8263 30.8356H28.1115L28.0738 30.5882C28.0316 30.3105 27.8527 29.9327 27.6527 29.6986C27.5795 29.6129 27.3686 29.462 27.1841 29.3636L26.8488 29.1845L17.988 29.1763C13.1145 29.1719 9.05533 29.1855 8.96752 29.2066ZM26.3964 32.7611V34.6866L25.7986 35.2771L25.2008 35.8676H23.0422H20.8836L20.5422 35.4089C20.3544 35.1567 19.9244 34.6773 19.5866 34.3435C18.4816 33.2517 17.8402 33.1039 16.8988 33.724C16.4468 34.0218 15.6925 34.7804 15.2143 35.4182L14.8773 35.8676H12.7215H10.5657L9.96621 35.2787L9.36666 34.6899V32.7627V30.8356H17.8815H26.3964V32.7611Z" fill="#171B24"/>
<path fill-rule="evenodd" clip-rule="evenodd" d="M12.5175 7.1529C12.5175 3.20247 15.72 7.62939e-06 19.6704 7.62939e-06C23.6209 7.62939e-06 26.8233 3.20247 26.8233 7.1529H24.439C24.439 4.51928 22.304 2.3843 19.6704 2.3843C17.0368 2.3843 14.9018 4.51928 14.9018 7.1529H12.5175Z" fill="#FDF074"/>
<path fill-rule="evenodd" clip-rule="evenodd" d="M10.7294 8.9411C10.7294 4.99067 13.9318 1.78821 17.8823 1.78821H18.4784C22.4288 1.78821 25.6312 4.99067 25.6312 8.9411H23.2469C23.2469 6.30748 21.112 4.17251 18.4784 4.17251H17.8823C15.2487 4.17251 13.1137 6.30748 13.1137 8.9411H10.7294Z" fill="#FBE303"/>
</svg>
